<svg id="visual" viewBox="0 0 900 600" width="900" height="600" xmlns="http://www.w3.org/2000/svg" xmlns:xlink="http://www.w3.org/1999/xlink" version="1.1"><rect x="0" y="0" width="900" height="600" fill="#f0f0f0"></rect><defs><linearGradient id="grad1_0" x1="33.3%" y1="100%" x2="100%" y2="0%"><stop offset="20%" stop-color="#ff9f8a" stop-opacity="1"></stop><stop offset="80%" stop-color="#ff9f8a" stop-opacity="1"></stop></linearGradient></defs><defs><linearGradient id="grad1_1" x1="33.3%" y1="100%" x2="100%" y2="0%"><stop offset="20%" stop-color="#ff9f8a" stop-opacity="1"></stop><stop offset="80%" stop-color="#ffad9a" stop-opacity="1"></stop></linearGradient></defs><defs><linearGradient id="grad1_2" x1="33.3%" y1="100%" x2="100%" y2="0%"><stop offset="20%" stop-color="#febaab" stop-opacity="1"></stop><stop offset="80%" stop-color="#ffad9a" stop-opacity="1"></stop></linearGradient></defs><defs><linearGradient id="grad1_3" x1="33.3%" y1="100%" x2="100%" y2="0%"><stop offset="20%" stop-color="#febaab" stop-opacity="1"></stop><stop offset="80%" stop-color="#fcc8bc" stop-opacity="1"></stop></linearGradient></defs><defs><linearGradient id="grad1_4" x1="33.3%" y1="100%" x2="100%" y2="0%"><stop offset="20%" stop-color="#f9d5cd" stop-opacity="1"></stop><stop offset="80%" stop-color="#fcc8bc" stop-opacity="1"></stop></linearGradient></defs><defs><linearGradient id="grad1_5" x1="33.3%" y1="100%" x2="100%" y2="0%"><stop offset="20%" stop-color="#f9d5cd" stop-opacity="1"></stop><stop offset="80%" stop-color="#f5e3de" stop-opacity="1"></stop></linearGradient></defs><defs><linearGradient id="grad1_6" x1="33.3%" y1="100%" x2="100%" y2="0%"><stop offset="20%" stop-color="#f0f0f0" stop-opacity="1"></stop><stop offset="80%" stop-color="#f5e3de" stop-opacity="1"></stop></linearGradient></defs><defs><linearGradient id="grad2_0" x1="0%" y1="100%" x2="66.7%" y2="0%"><stop offset="20%" stop-color="#ff9f8a" stop-opacity="1"></stop><stop offset="80%" stop-color="#ff9f8a" stop-opacity="1"></stop></linearGradient></defs><defs><linearGradient id="grad2_1" x1="0%" y1="100%" x2="66.7%" y2="0%"><stop offset="20%" stop-color="#ffad9a" stop-opacity="1"></stop><stop offset="80%" stop-color="#ff9f8a" stop-opacity="1"></stop></linearGradient></defs><defs><linearGradient id="grad2_2" x1="0%" y1="100%" x2="66.7%" y2="0%"><stop offset="20%" stop-color="#ffad9a" stop-opacity="1"></stop><stop offset="80%" stop-color="#febaab" stop-opacity="1"></stop></linearGradient></defs><defs><linearGradient id="grad2_3" x1="0%" y1="100%" x2="66.7%" y2="0%"><stop offset="20%" stop-color="#fcc8bc" stop-opacity="1"></stop><stop offset="80%" stop-color="#febaab" stop-opacity="1"></stop></linearGradient></defs><defs><linearGradient id="grad2_4" x1="0%" y1="100%" x2="66.7%" y2="0%"><stop offset="20%" stop-color="#fcc8bc" stop-opacity="1"></stop><stop offset="80%" stop-color="#f9d5cd" stop-opacity="1"></stop></linearGradient></defs><defs><linearGradient id="grad2_5" x1="0%" y1="100%" x2="66.7%" y2="0%"><stop offset="20%" stop-color="#f5e3de" stop-opacity="1"></stop><stop offset="80%" stop-color="#f9d5cd" stop-opacity="1"></stop></linearGradient></defs><defs><linearGradient id="grad2_6" x1="0%" y1="100%" x2="66.7%" y2="0%"><stop offset="20%" stop-color="#f5e3de" stop-opacity="1"></stop><stop offset="80%" stop-color="#f0f0f0" stop-opacity="1"></stop></linearGradient></defs><g transform="translate(900, 600)"><path d="M-351.5 0C-327 -40 -302.5 -80 -282.7 -117.1C-262.9 -154.2 -248 -188.3 -225.6 -225.6C-203.2 -262.8 -173.4 -303.3 -134.5 -324.8C-95.7 -346.3 -47.8 -348.9 0 -351.5L0 0Z" fill="#f3e9e7"></path><path d="M-301.3 0C-280.3 -34.3 -259.3 -68.6 -242.3 -100.4C-225.4 -132.1 -212.5 -161.4 -193.3 -193.3C-174.1 -225.3 -148.6 -259.9 -115.3 -278.4C-82 -296.8 -41 -299.1 0 -301.3L0 0Z" fill="#f7dcd6"></path><path d="M-251.1 0C-233.6 -28.6 -216 -57.2 -201.9 -83.6C-187.8 -110.1 -177.1 -134.5 -161.1 -161.1C-145.1 -187.7 -123.8 -216.6 -96.1 -232C-68.4 -247.4 -34.2 -249.2 0 -251.1L0 0Z" fill="#fbcfc4"></path><path d="M-200.9 0C-186.9 -22.9 -172.8 -45.7 -161.5 -66.9C-150.3 -88.1 -141.7 -107.6 -128.9 -128.9C-116.1 -150.2 -99.1 -173.3 -76.9 -185.6C-54.7 -197.9 -27.3 -199.4 0 -200.9L0 0Z" fill="#fdc1b3"></path><path d="M-150.7 0C-140.1 -17.1 -129.6 -34.3 -121.2 -50.2C-112.7 -66.1 -106.3 -80.7 -96.7 -96.7C-87.1 -112.6 -74.3 -130 -57.7 -139.2C-41 -148.4 -20.5 -149.5 0 -150.7L0 0Z" fill="#feb4a3"></path><path d="M-100.4 0C-93.4 -11.4 -86.4 -22.9 -80.8 -33.5C-75.1 -44 -70.8 -53.8 -64.4 -64.4C-58 -75.1 -49.5 -86.6 -38.4 -92.8C-27.3 -98.9 -13.7 -99.7 0 -100.4L0 0Z" fill="#ffa692"></path><path d="M-50.2 0C-46.7 -5.7 -43.2 -11.4 -40.4 -16.7C-37.6 -22 -35.4 -26.9 -32.2 -32.2C-29 -37.5 -24.8 -43.3 -19.2 -46.4C-13.7 -49.5 -6.8 -49.8 0 -50.2L0 0Z" fill="#ff9f8a"></path></g><g transform="translate(0, 0)"><path d="M351.5 0C340.5 42.6 329.4 85.1 315 130.5C300.7 175.9 282.9 224 248.6 248.6C214.2 273.1 163.2 274.1 119 287.3C74.8 300.6 37.4 326 0 351.5L0 0Z" fill="#f3e9e7"></path><path d="M301.3 0C291.8 36.5 282.4 73 270 111.9C257.7 150.7 242.5 192 213.1 213.1C183.6 234.1 139.9 234.9 102 246.3C64.1 257.6 32.1 279.5 0 301.3L0 0Z" fill="#f7dcd6"></path><path d="M251.1 0C243.2 30.4 235.3 60.8 225 93.2C214.8 125.6 202.1 160 177.6 177.6C153 195.1 116.6 195.8 85 205.2C53.4 214.7 26.7 232.9 0 251.1L0 0Z" fill="#fbcfc4"></path><path d="M200.9 0C194.6 24.3 188.2 48.6 180 74.6C171.8 100.5 161.7 128 142 142C122.4 156.1 93.3 156.6 68 164.2C42.7 171.7 21.4 186.3 0 200.9L0 0Z" fill="#fdc1b3"></path><path d="M150.7 0C145.9 18.2 141.2 36.5 135 55.9C128.9 75.4 121.3 96 106.5 106.5C91.8 117.1 70 117.5 51 123.1C32.1 128.8 16 139.7 0 150.7L0 0Z" fill="#feb4a3"></path><path d="M100.4 0C97.3 12.2 94.1 24.3 90 37.3C85.9 50.2 80.8 64 71 71C61.2 78 46.6 78.3 34 82.1C21.4 85.9 10.7 93.2 0 100.4L0 0Z" fill="#ffa692"></path><path d="M50.2 0C48.6 6.1 47.1 12.2 45 18.6C43 25.1 40.4 32 35.5 35.5C30.6 39 23.3 39.2 17 41C10.7 42.9 5.3 46.6 0 50.2L0 0Z" fill="#ff9f8a"></path></g></svg>