<svg id="visual" viewBox="0 0 900 600" width="900" height="600" xmlns="http://www.w3.org/2000/svg" xmlns:xlink="http://www.w3.org/1999/xlink" version="1.1"><rect x="0" y="0" width="900" height="600" fill="#F0f0f0"></rect><path d="M0 347L21.5 335.7C43 324.3 86 301.7 128.8 300.2C171.7 298.7 214.3 318.3 257.2 321.5C300 324.7 343 311.3 385.8 307.2C428.7 303 471.3 308 514.2 301.8C557 295.7 600 278.3 642.8 284.7C685.7 291 728.3 321 771.2 317.5C814 314 857 277 878.5 258.5L900 240L900 601L878.5 601C857 601 814 601 771.2 601C728.3 601 685.7 601 642.8 601C600 601 557 601 514.2 601C471.3 601 428.7 601 385.8 601C343 601 300 601 257.2 601C214.3 601 171.7 601 128.8 601C86 601 43 601 21.5 601L0 601Z" fill="#ffbeab"></path><path d="M0 249L21.5 269.7C43 290.3 86 331.7 128.8 343.2C171.7 354.7 214.3 336.3 257.2 325C300 313.7 343 309.3 385.8 315.3C428.7 321.3 471.3 337.7 514.2 333C557 328.3 600 302.7 642.8 286.2C685.7 269.7 728.3 262.3 771.2 260.8C814 259.3 857 263.7 878.5 265.8L900 268L900 601L878.5 601C857 601 814 601 771.2 601C728.3 601 685.7 601 642.8 601C600 601 557 601 514.2 601C471.3 601 428.7 601 385.8 601C343 601 300 601 257.2 601C214.3 601 171.7 601 128.8 601C86 601 43 601 21.5 601L0 601Z" fill="#ffb5a1"></path><path d="M0 399L21.5 396.5C43 394 86 389 128.8 376.7C171.7 364.3 214.3 344.7 257.2 339.3C300 334 343 343 385.8 350.7C428.7 358.3 471.3 364.7 514.2 374.5C557 384.3 600 397.7 642.8 398.2C685.7 398.7 728.3 386.3 771.2 377.7C814 369 857 364 878.5 361.5L900 359L900 601L878.5 601C857 601 814 601 771.2 601C728.3 601 685.7 601 642.8 601C600 601 557 601 514.2 601C471.3 601 428.7 601 385.8 601C343 601 300 601 257.2 601C214.3 601 171.7 601 128.8 601C86 601 43 601 21.5 601L0 601Z" fill="#ffac98"></path><path d="M0 398L21.5 402.3C43 406.7 86 415.3 128.8 415.2C171.7 415 214.3 406 257.2 396C300 386 343 375 385.8 379.2C428.7 383.3 471.3 402.7 514.2 407.2C557 411.7 600 401.3 642.8 402.5C685.7 403.7 728.3 416.3 771.2 412.3C814 408.3 857 387.7 878.5 377.3L900 367L900 601L878.5 601C857 601 814 601 771.2 601C728.3 601 685.7 601 642.8 601C600 601 557 601 514.2 601C471.3 601 428.7 601 385.8 601C343 601 300 601 257.2 601C214.3 601 171.7 601 128.8 601C86 601 43 601 21.5 601L0 601Z" fill="#ffa48e"></path><path d="M0 370L21.5 382.5C43 395 86 420 128.8 436.7C171.7 453.3 214.3 461.7 257.2 465.5C300 469.3 343 468.7 385.8 470.2C428.7 471.7 471.3 475.3 514.2 466.8C557 458.3 600 437.7 642.8 427.3C685.7 417 728.3 417 771.2 426.7C814 436.3 857 455.7 878.5 465.3L900 475L900 601L878.5 601C857 601 814 601 771.2 601C728.3 601 685.7 601 642.8 601C600 601 557 601 514.2 601C471.3 601 428.7 601 385.8 601C343 601 300 601 257.2 601C214.3 601 171.7 601 128.8 601C86 601 43 601 21.5 601L0 601Z" fill="#fd9a84"></path><path d="M0 509L21.5 508C43 507 86 505 128.8 497.7C171.7 490.3 214.3 477.7 257.2 472.7C300 467.7 343 470.3 385.8 468.3C428.7 466.3 471.3 459.7 514.2 465.7C557 471.7 600 490.3 642.8 489.3C685.7 488.3 728.3 467.7 771.2 465.7C814 463.7 857 480.3 878.5 488.7L900 497L900 601L878.5 601C857 601 814 601 771.2 601C728.3 601 685.7 601 642.8 601C600 601 557 601 514.2 601C471.3 601 428.7 601 385.8 601C343 601 300 601 257.2 601C214.3 601 171.7 601 128.8 601C86 601 43 601 21.5 601L0 601Z" fill="#f98f77"></path><path d="M0 512L21.5 516.5C43 521 86 530 128.8 531.2C171.7 532.3 214.3 525.7 257.2 516.8C300 508 343 497 385.8 499.2C428.7 501.3 471.3 516.7 514.2 519.8C557 523 600 514 642.8 512.7C685.7 511.3 728.3 517.7 771.2 518.7C814 519.7 857 515.3 878.5 513.2L900 511L900 601L878.5 601C857 601 814 601 771.2 601C728.3 601 685.7 601 642.8 601C600 601 557 601 514.2 601C471.3 601 428.7 601 385.8 601C343 601 300 601 257.2 601C214.3 601 171.7 601 128.8 601C86 601 43 601 21.5 601L0 601Z" fill="#f4846a"></path><path d="M0 563L21.5 563.8C43 564.7 86 566.3 128.8 565.5C171.7 564.7 214.3 561.3 257.2 557.2C300 553 343 548 385.8 549C428.7 550 471.3 557 514.2 553.2C557 549.3 600 534.7 642.8 535.3C685.7 536 728.3 552 771.2 560.5C814 569 857 570 878.5 570.5L900 571L900 601L878.5 601C857 601 814 601 771.2 601C728.3 601 685.7 601 642.8 601C600 601 557 601 514.2 601C471.3 601 428.7 601 385.8 601C343 601 300 601 257.2 601C214.3 601 171.7 601 128.8 601C86 601 43 601 21.5 601L0 601Z" fill="#ef795e"></path></svg>