<svg id="visual" viewBox="0 0 900 600" width="900" height="600" xmlns="http://www.w3.org/2000/svg" xmlns:xlink="http://www.w3.org/1999/xlink" version="1.1"><rect x="0" y="0" width="900" height="600" fill="#f0f0f0"></rect><path d="M615 600L590.2 583.3C565.3 566.7 515.7 533.3 489.5 500C463.3 466.7 460.7 433.3 485.8 400C511 366.7 564 333.3 576.8 300C589.7 266.7 562.3 233.3 559.8 200C557.3 166.7 579.7 133.3 575.2 100C570.7 66.7 539.3 33.3 523.7 16.7L508 0L900 0L900 16.7C900 33.3 900 66.7 900 100C900 133.3 900 166.7 900 200C900 233.3 900 266.7 900 300C900 333.3 900 366.7 900 400C900 433.3 900 466.7 900 500C900 533.3 900 566.7 900 583.3L900 600Z" fill="#ff9f8a" stroke-linecap="round" stroke-linejoin="miter"></path></svg>